<svg width="938" height="189" viewBox="0 0 938 189" fill="none" xmlns="http://www.w3.org/2000/svg">
<path d="M82.75 42.75L54.75 111H112.25L82.75 42.75ZM0.75 181.5H21.75L96.25 -2.38419e-06H103L181.75 181.5H203.25V185H119.25V181.5H142.5L113.5 114.5H53.5L25.75 181.5H48V185H0.75V181.5ZM264.697 87.75H274.947C282.447 87.75 288.364 86.75 292.697 84.75C297.031 82.75 300.281 80.0833 302.447 76.75C304.614 73.25 305.947 69.3333 306.447 65C307.114 60.6667 307.447 56.25 307.447 51.75C307.447 44.4167 306.947 38.1667 305.947 33C304.947 27.6667 303.281 23.3333 300.947 20C298.614 16.5 295.364 13.9167 291.197 12.25C287.197 10.5833 282.031 9.74999 275.697 9.74999C273.864 9.74999 272.031 9.83332 270.197 9.99999C268.364 10.1667 266.531 10.3333 264.697 10.5V87.75ZM264.697 181.5C269.197 182 274.031 182.25 279.197 182.25C284.531 182.25 289.281 181.667 293.447 180.5C297.781 179.167 301.447 176.75 304.447 173.25C307.447 169.75 309.697 164.917 311.197 158.75C312.864 152.417 313.697 144.167 313.697 134C313.697 131.167 313.447 127.417 312.947 122.75C312.447 117.917 311.031 113.167 308.697 108.5C306.531 103.833 303.114 99.8333 298.447 96.5C293.947 93 287.531 91.25 279.197 91.25H264.697V181.5ZM228.447 10.5H205.447V7H243.197C250.197 7 257.114 6.91666 263.947 6.74999C270.781 6.41666 277.697 6.24999 284.697 6.24999C291.197 6.24999 298.031 6.91666 305.197 8.25C312.364 9.58332 318.864 11.8333 324.697 15C330.697 18.1667 335.614 22.4167 339.447 27.75C343.281 33.0833 345.197 39.75 345.197 47.75C345.197 54.9167 343.281 61 339.447 66C335.781 70.8333 331.281 74.8333 325.947 78C320.614 81.1667 315.031 83.5833 309.197 85.25C303.531 86.9167 298.697 88 294.697 88.5V89.5C301.197 90 307.947 91.0833 314.947 92.75C321.947 94.4167 328.364 97.0833 334.197 100.75C340.031 104.25 344.864 108.917 348.697 114.75C352.531 120.583 354.447 127.917 354.447 136.75C354.447 146.417 351.947 154.417 346.947 160.75C342.114 167.083 336.114 172.083 328.947 175.75C321.947 179.417 314.447 182 306.447 183.5C298.447 184.833 291.281 185.5 284.947 185.5C277.947 185.5 270.947 185.417 263.947 185.25C257.114 185.083 250.197 185 243.197 185H205.447V181.5H228.447V10.5ZM419.09 96.5C419.09 113.833 420.09 128.25 422.09 139.75C424.09 151.083 427.173 160.167 431.34 167C435.673 173.667 441.173 178.333 447.84 181C454.673 183.667 462.757 185 472.09 185C484.423 185 494.09 182.75 501.09 178.25C508.09 173.583 513.34 167.25 516.84 159.25C520.34 151.083 522.507 141.5 523.34 130.5C524.34 119.333 524.84 107.25 524.84 94.25C524.84 82.5833 524.423 71.5 523.59 61C522.923 50.3333 520.84 41 517.34 33C513.84 24.8333 508.507 18.4167 501.34 13.75C494.34 8.91665 484.59 6.49999 472.09 6.49999C460.423 6.49999 451.09 8.74999 444.09 13.25C437.09 17.5833 431.757 23.75 428.09 31.75C424.423 39.75 422.007 49.25 420.84 60.25C419.673 71.25 419.09 83.3333 419.09 96.5ZM378.34 96.5C378.34 82.3333 381.173 69.5 386.84 58C392.673 46.5 400.09 36.6667 409.09 28.5C418.09 20.3333 428.173 14.0833 439.34 9.74999C450.507 5.24999 461.423 2.99999 472.09 2.99999C483.59 2.99999 494.923 5.16666 506.09 9.49999C517.423 13.8333 527.423 20 536.09 28C544.923 36 552.007 45.75 557.34 57.25C562.84 68.5833 565.59 81.4167 565.59 95.75C565.59 108.25 563.007 120.167 557.84 131.5C552.84 142.667 546.007 152.5 537.34 161C528.84 169.5 518.923 176.25 507.59 181.25C496.423 186.083 484.59 188.5 472.09 188.5C459.757 188.5 447.923 186.167 436.59 181.5C425.257 176.667 415.257 170.167 406.59 162C398.09 153.667 391.257 143.917 386.09 132.75C380.923 121.583 378.34 109.5 378.34 96.5ZM584.092 7H666.592V10.5H643.592V122.75C643.592 130.583 643.925 138.25 644.592 145.75C645.425 153.083 647.175 159.667 649.842 165.5C652.675 171.333 656.758 176.083 662.092 179.75C667.592 183.25 674.925 185 684.092 185C693.092 185 700.592 184 706.592 182C712.758 179.833 717.842 177.083 721.842 173.75C725.842 170.25 728.925 166.417 731.092 162.25C733.258 157.917 734.842 153.667 735.842 149.5C736.842 145.167 737.425 141.167 737.592 137.5C737.758 133.667 737.842 130.5 737.842 128V10.5H715.092V7H765.092V10.5H741.842V127.75C741.842 130.417 741.758 133.833 741.592 138C741.425 142 740.758 146.25 739.592 150.75C738.425 155.25 736.675 159.75 734.342 164.25C732.008 168.75 728.592 172.833 724.092 176.5C719.592 180 713.925 182.833 707.092 185C700.258 187.333 691.842 188.5 681.842 188.5C665.675 188.5 652.675 186.75 642.842 183.25C633.008 179.583 625.425 174.917 620.092 169.25C614.925 163.417 611.508 156.833 609.842 149.5C608.175 142.167 607.342 134.75 607.342 127.25V10.5H584.092V7ZM840.672 10.5H831.672C825.505 10.5 820.005 11.1667 815.172 12.5C810.339 13.6667 806.005 15.8333 802.172 19C798.339 22 794.922 26.25 791.922 31.75C788.922 37.25 786.172 44.25 783.672 52.75H780.422V7H937.172V52.75H933.922C931.422 44.25 928.672 37.25 925.672 31.75C922.672 26.25 919.255 22 915.422 19C911.589 15.8333 907.255 13.6667 902.422 12.5C897.589 11.1667 892.089 10.5 885.922 10.5H876.922V181.5H899.922V185H817.672V181.5H840.672V10.5Z" fill="black"/>
</svg>
