<svg width="522" height="74" viewBox="0 0 522 74" fill="none" xmlns="http://www.w3.org/2000/svg">
<path d="M32.2755 17.376L21.5235 43.584H43.6035L32.2755 17.376ZM0.7875 70.656H8.8515L37.4595 0.959999H40.0515L70.2915 70.656H78.5475V72H46.2915V70.656H55.2195L44.0835 44.928H21.0435L10.3875 70.656H18.9315V72H0.7875V70.656ZM102.143 34.656H106.079C108.959 34.656 111.231 34.272 112.895 33.504C114.559 32.736 115.807 31.712 116.639 30.432C117.471 29.088 117.983 27.584 118.175 25.92C118.431 24.256 118.559 22.56 118.559 20.832C118.559 18.016 118.367 15.616 117.983 13.632C117.599 11.584 116.959 9.92 116.063 8.64C115.167 7.296 113.919 6.304 112.319 5.664C110.783 5.024 108.799 4.704 106.367 4.704C105.663 4.704 104.959 4.736 104.255 4.8C103.551 4.86399 102.847 4.928 102.143 4.992V34.656ZM102.143 70.656C103.871 70.848 105.727 70.944 107.711 70.944C109.759 70.944 111.583 70.72 113.183 70.272C114.847 69.76 116.255 68.832 117.407 67.488C118.559 66.144 119.423 64.288 119.999 61.92C120.639 59.488 120.959 56.32 120.959 52.416C120.959 51.328 120.863 49.888 120.671 48.096C120.479 46.24 119.935 44.416 119.039 42.624C118.207 40.832 116.895 39.296 115.103 38.016C113.375 36.672 110.911 36 107.711 36H102.143V70.656ZM88.2233 4.992H79.3913V3.648H93.8873C96.5753 3.648 99.2313 3.616 101.855 3.55199C104.479 3.424 107.135 3.36 109.823 3.36C112.319 3.36 114.943 3.616 117.695 4.128C120.447 4.64 122.943 5.504 125.183 6.72C127.487 7.936 129.375 9.568 130.847 11.616C132.319 13.664 133.055 16.224 133.055 19.296C133.055 22.048 132.319 24.384 130.847 26.304C129.439 28.16 127.711 29.696 125.663 30.912C123.615 32.128 121.471 33.056 119.231 33.696C117.055 34.336 115.199 34.752 113.663 34.944V35.328C116.159 35.52 118.751 35.936 121.439 36.576C124.127 37.216 126.591 38.24 128.831 39.648C131.071 40.992 132.927 42.784 134.399 45.024C135.871 47.264 136.607 50.08 136.607 53.472C136.607 57.184 135.647 60.256 133.727 62.688C131.871 65.12 129.567 67.04 126.815 68.448C124.127 69.856 121.247 70.848 118.175 71.424C115.103 71.936 112.351 72.192 109.919 72.192C107.231 72.192 104.543 72.16 101.855 72.096C99.2313 72.032 96.5753 72 93.8873 72H79.3913V70.656H88.2233V4.992ZM161.43 38.016C161.43 44.672 161.814 50.208 162.582 54.624C163.35 58.976 164.534 62.464 166.134 65.088C167.798 67.648 169.91 69.44 172.47 70.464C175.094 71.488 178.198 72 181.782 72C186.518 72 190.23 71.136 192.918 69.408C195.606 67.616 197.622 65.184 198.966 62.112C200.31 58.976 201.142 55.296 201.462 51.072C201.846 46.784 202.038 42.144 202.038 37.152C202.038 32.672 201.878 28.416 201.558 24.384C201.302 20.288 200.502 16.704 199.158 13.632C197.814 10.496 195.766 8.032 193.014 6.23999C190.326 4.384 186.582 3.456 181.782 3.456C177.302 3.456 173.718 4.32 171.03 6.048C168.342 7.712 166.294 10.08 164.886 13.152C163.478 16.224 162.55 19.872 162.102 24.096C161.654 28.32 161.43 32.96 161.43 38.016ZM145.782 38.016C145.782 32.576 146.87 27.648 149.046 23.232C151.286 18.816 154.134 15.04 157.59 11.904C161.046 8.768 164.918 6.368 169.206 4.704C173.494 2.976 177.686 2.112 181.782 2.112C186.198 2.112 190.55 2.944 194.838 4.608C199.19 6.272 203.03 8.64 206.358 11.712C209.75 14.784 212.47 18.528 214.518 22.944C216.63 27.296 217.686 32.224 217.686 37.728C217.686 42.528 216.694 47.104 214.71 51.456C212.79 55.744 210.166 59.52 206.838 62.784C203.574 66.048 199.766 68.64 195.414 70.56C191.126 72.416 186.582 73.344 181.782 73.344C177.046 73.344 172.502 72.448 168.15 70.656C163.798 68.8 159.958 66.304 156.63 63.168C153.366 59.968 150.742 56.224 148.758 51.936C146.774 47.648 145.782 43.008 145.782 38.016ZM224.791 3.648H256.471V4.992H247.639V48.096C247.639 51.104 247.767 54.048 248.023 56.928C248.343 59.744 249.015 62.272 250.039 64.512C251.127 66.752 252.695 68.576 254.743 69.984C256.855 71.328 259.671 72 263.191 72C266.647 72 269.527 71.616 271.831 70.848C274.199 70.016 276.151 68.96 277.687 67.68C279.223 66.336 280.407 64.864 281.239 63.264C282.071 61.6 282.679 59.968 283.063 58.368C283.447 56.704 283.671 55.168 283.735 53.76C283.799 52.288 283.831 51.072 283.831 50.112V4.992H275.095V3.648H294.295V4.992H285.367V50.016C285.367 51.04 285.335 52.352 285.271 53.952C285.207 55.488 284.951 57.12 284.503 58.848C284.055 60.576 283.383 62.304 282.487 64.032C281.591 65.76 280.279 67.328 278.551 68.736C276.823 70.08 274.647 71.168 272.023 72C269.399 72.896 266.167 73.344 262.327 73.344C256.119 73.344 251.127 72.672 247.351 71.328C243.575 69.92 240.663 68.128 238.615 65.952C236.631 63.712 235.319 61.184 234.679 58.368C234.039 55.552 233.719 52.704 233.719 49.824V4.992H224.791V3.648ZM323.318 4.992H319.862C317.494 4.992 315.382 5.248 313.526 5.75999C311.67 6.208 310.006 7.04 308.534 8.256C307.062 9.408 305.75 11.04 304.598 13.152C303.446 15.264 302.39 17.952 301.43 21.216H300.182V3.648H360.374V21.216H359.126C358.166 17.952 357.11 15.264 355.958 13.152C354.806 11.04 353.494 9.408 352.022 8.256C350.55 7.04 348.886 6.208 347.03 5.75999C345.174 5.248 343.062 4.992 340.694 4.992H337.238V70.656H346.07V72H314.486V70.656H323.318V4.992ZM393.916 3.648H425.596V4.992H416.764V48.096C416.764 51.104 416.892 54.048 417.148 56.928C417.468 59.744 418.14 62.272 419.164 64.512C420.252 66.752 421.82 68.576 423.868 69.984C425.98 71.328 428.796 72 432.316 72C435.772 72 438.652 71.616 440.956 70.848C443.324 70.016 445.276 68.96 446.812 67.68C448.348 66.336 449.532 64.864 450.364 63.264C451.196 61.6 451.804 59.968 452.188 58.368C452.572 56.704 452.796 55.168 452.86 53.76C452.924 52.288 452.956 51.072 452.956 50.112V4.992H444.22V3.648H463.42V4.992H454.492V50.016C454.492 51.04 454.46 52.352 454.396 53.952C454.332 55.488 454.076 57.12 453.628 58.848C453.18 60.576 452.508 62.304 451.612 64.032C450.716 65.76 449.404 67.328 447.676 68.736C445.948 70.08 443.772 71.168 441.148 72C438.524 72.896 435.292 73.344 431.452 73.344C425.244 73.344 420.252 72.672 416.476 71.328C412.7 69.92 409.788 68.128 407.74 65.952C405.756 63.712 404.444 61.184 403.804 58.368C403.164 55.552 402.844 52.704 402.844 49.824V4.992H393.916V3.648ZM471.611 50.688H473.051C473.179 51.456 473.403 52.48 473.723 53.76C474.043 54.976 474.491 56.32 475.067 57.792C475.707 59.2 476.475 60.672 477.371 62.208C478.331 63.68 479.483 65.056 480.827 66.336C482.299 67.808 483.707 68.928 485.051 69.696C486.459 70.464 487.771 71.04 488.987 71.424C490.267 71.744 491.451 71.936 492.539 72C493.691 72 494.747 72 495.707 72C499.099 72 501.883 71.488 504.059 70.464C506.235 69.376 507.931 68.064 509.147 66.528C510.427 64.992 511.323 63.392 511.835 61.728C512.347 60 512.603 58.496 512.603 57.216C512.603 54.848 512.027 52.896 510.875 51.36C509.787 49.824 508.315 48.544 506.459 47.52C504.603 46.496 502.491 45.632 500.123 44.928C497.755 44.224 495.323 43.52 492.827 42.816C490.331 42.048 487.899 41.184 485.531 40.224C483.163 39.2 481.051 37.92 479.195 36.384C477.339 34.784 475.835 32.832 474.683 30.528C473.595 28.224 473.051 25.344 473.051 21.888C473.051 19.328 473.627 16.864 474.779 14.496C475.931 12.128 477.531 10.048 479.579 8.256C481.627 6.4 484.059 4.928 486.875 3.84C489.755 2.688 492.859 2.112 496.187 2.112C498.299 2.112 500.155 2.304 501.755 2.68799C503.355 3.072 504.763 3.488 505.979 3.936C507.195 4.32 508.251 4.704 509.147 5.088C510.107 5.472 510.971 5.664 511.739 5.664C512.635 5.664 513.211 5.536 513.467 5.27999C513.787 4.96 514.107 4.416 514.427 3.648H515.963V21.888H514.715C513.947 19.648 513.115 17.44 512.219 15.264C511.387 13.088 510.299 11.136 508.955 9.408C507.611 7.616 505.915 6.176 503.867 5.088C501.819 4 499.227 3.456 496.091 3.456C493.531 3.456 491.259 3.808 489.275 4.512C487.355 5.216 485.723 6.144 484.379 7.296C483.035 8.448 482.011 9.728 481.307 11.136C480.603 12.544 480.251 13.984 480.251 15.456C480.251 17.696 480.827 19.552 481.979 21.024C483.195 22.496 484.763 23.776 486.683 24.864C488.603 25.888 490.779 26.784 493.211 27.552C495.707 28.32 498.235 29.12 500.795 29.952C503.419 30.784 505.947 31.712 508.379 32.736C510.875 33.696 513.083 34.944 515.003 36.48C516.923 38.016 518.459 39.872 519.611 42.048C520.827 44.224 521.435 46.912 521.435 50.112C521.435 53.248 520.795 56.224 519.515 59.04C518.235 61.856 516.411 64.32 514.042 66.432C511.739 68.544 508.955 70.24 505.691 71.52C502.491 72.736 498.907 73.344 494.939 73.344C492.955 73.344 490.971 73.152 488.987 72.768C487.067 72.384 485.243 72 483.515 71.616C481.851 71.168 480.347 70.752 479.003 70.368C477.723 69.984 476.763 69.792 476.123 69.792C475.227 69.792 474.587 69.952 474.203 70.272C473.819 70.528 473.467 71.104 473.147 72H471.611V50.688Z" fill="black"/>
</svg>
