<svg width="417" height="74" viewBox="0 0 417 74" fill="none" xmlns="http://www.w3.org/2000/svg">
<path d="M23.112 34.656H27.048C29.928 34.656 32.2 34.272 33.864 33.504C35.528 32.736 36.776 31.712 37.608 30.432C38.44 29.088 38.952 27.584 39.144 25.92C39.4 24.256 39.528 22.56 39.528 20.832C39.528 18.016 39.336 15.616 38.952 13.632C38.568 11.584 37.928 9.92 37.032 8.64C36.136 7.296 34.888 6.304 33.288 5.664C31.752 5.024 29.768 4.704 27.336 4.704C26.632 4.704 25.928 4.736 25.224 4.8C24.52 4.86399 23.816 4.928 23.112 4.992V34.656ZM23.112 70.656C24.84 70.848 26.696 70.944 28.68 70.944C30.728 70.944 32.552 70.72 34.152 70.272C35.816 69.76 37.224 68.832 38.376 67.488C39.528 66.144 40.392 64.288 40.968 61.92C41.608 59.488 41.928 56.32 41.928 52.416C41.928 51.328 41.832 49.888 41.64 48.096C41.448 46.24 40.904 44.416 40.008 42.624C39.176 40.832 37.864 39.296 36.072 38.016C34.344 36.672 31.88 36 28.68 36H23.112V70.656ZM9.192 4.992H0.36V3.648H14.856C17.544 3.648 20.2 3.616 22.824 3.55199C25.448 3.424 28.104 3.36 30.792 3.36C33.288 3.36 35.912 3.616 38.664 4.128C41.416 4.64 43.912 5.504 46.152 6.72C48.456 7.936 50.344 9.568 51.816 11.616C53.288 13.664 54.024 16.224 54.024 19.296C54.024 22.048 53.288 24.384 51.816 26.304C50.408 28.16 48.68 29.696 46.632 30.912C44.584 32.128 42.44 33.056 40.2 33.696C38.024 34.336 36.168 34.752 34.632 34.944V35.328C37.128 35.52 39.72 35.936 42.408 36.576C45.096 37.216 47.56 38.24 49.8 39.648C52.04 40.992 53.896 42.784 55.368 45.024C56.84 47.264 57.576 50.08 57.576 53.472C57.576 57.184 56.616 60.256 54.696 62.688C52.84 65.12 50.536 67.04 47.784 68.448C45.096 69.856 42.216 70.848 39.144 71.424C36.072 71.936 33.32 72.192 30.888 72.192C28.2 72.192 25.512 72.16 22.824 72.096C20.2 72.032 17.544 72 14.856 72H0.36V70.656H9.192V4.992ZM66.2708 3.648H123.679V20.064H122.431C122.111 18.976 121.567 17.6 120.799 15.936C120.031 14.208 118.943 12.544 117.535 10.944C116.191 9.344 114.431 7.968 112.255 6.816C110.079 5.6 107.423 4.992 104.287 4.992H89.0228V34.656H94.3988C96.7668 34.656 98.7508 34.336 100.351 33.696C102.015 32.992 103.391 32.032 104.479 30.816C105.567 29.536 106.463 28.032 107.167 26.304C107.871 24.512 108.447 22.528 108.895 20.352H110.143V50.208H108.895C108.447 48.352 107.903 46.56 107.263 44.832C106.687 43.104 105.887 41.6 104.863 40.32C103.839 38.976 102.559 37.92 101.023 37.152C99.5508 36.384 97.6948 36 95.4548 36H89.0228V70.656H104.767C107.711 70.656 110.367 70.176 112.735 69.216C115.103 68.192 117.183 66.784 118.975 64.992C120.831 63.2 122.367 61.12 123.583 58.752C124.799 56.32 125.727 53.728 126.367 50.976H127.615V72H66.2708V70.656H75.1028V4.992H66.2708V3.648ZM161.088 17.376L150.336 43.584H172.416L161.088 17.376ZM129.6 70.656H137.664L166.272 0.959999H168.864L199.104 70.656H207.36V72H175.104V70.656H184.032L172.896 44.928H149.856L139.2 70.656H147.744V72H129.6V70.656ZM207.916 3.648H239.596V4.992H230.764V48.096C230.764 51.104 230.892 54.048 231.148 56.928C231.468 59.744 232.14 62.272 233.164 64.512C234.252 66.752 235.82 68.576 237.868 69.984C239.98 71.328 242.796 72 246.316 72C249.772 72 252.652 71.616 254.956 70.848C257.324 70.016 259.276 68.96 260.812 67.68C262.348 66.336 263.532 64.864 264.364 63.264C265.196 61.6 265.804 59.968 266.188 58.368C266.572 56.704 266.796 55.168 266.86 53.76C266.924 52.288 266.956 51.072 266.956 50.112V4.992H258.22V3.648H277.42V4.992H268.492V50.016C268.492 51.04 268.46 52.352 268.396 53.952C268.332 55.488 268.076 57.12 267.628 58.848C267.18 60.576 266.508 62.304 265.612 64.032C264.716 65.76 263.404 67.328 261.676 68.736C259.948 70.08 257.772 71.168 255.148 72C252.524 72.896 249.292 73.344 245.452 73.344C239.244 73.344 234.252 72.672 230.476 71.328C226.7 69.92 223.788 68.128 221.74 65.952C219.756 63.712 218.444 61.184 217.804 58.368C217.164 55.552 216.844 52.704 216.844 49.824V4.992H207.916V3.648ZM306.443 4.992H302.987C300.619 4.992 298.507 5.248 296.651 5.75999C294.795 6.208 293.131 7.04 291.659 8.256C290.187 9.408 288.875 11.04 287.723 13.152C286.571 15.264 285.515 17.952 284.555 21.216H283.307V3.648H343.499V21.216H342.251C341.291 17.952 340.235 15.264 339.083 13.152C337.931 11.04 336.619 9.408 335.147 8.256C333.675 7.04 332.011 6.208 330.155 5.75999C328.299 5.248 326.187 4.992 323.819 4.992H320.363V70.656H329.195V72H297.611V70.656H306.443V4.992ZM345.81 3.648H376.722V4.992H369.138L388.722 38.496L406.386 4.992H398.034V3.648H416.37V4.992H408.018L389.49 40.224V70.656H398.418V72H366.738V70.656H375.57V43.872L353.298 4.992H345.81V3.648Z" fill="black"/>
</svg>
