<svg width="1275" height="189" viewBox="0 0 1275 189" fill="none" xmlns="http://www.w3.org/2000/svg">
<path d="M152.25 58H149C147.167 52.5 144.917 46.75 142.25 40.75C139.75 34.5833 136.417 29 132.25 24C128.25 18.8333 123.167 14.6667 117 11.5C111 8.16666 103.5 6.49999 94.5 6.49999C82.3333 6.49999 72.75 8.74999 65.75 13.25C58.75 17.75 53.4167 24 49.75 32C46.25 40 44 49.5833 43 60.75C42 71.75 41.5 83.8333 41.5 97C41.5 114.333 42.5 128.667 44.5 140C46.5 151.333 49.5833 160.333 53.75 167C58.0833 173.667 63.5833 178.333 70.25 181C77.0833 183.667 85.1667 185 94.5 185C102 185 108.75 183.5 114.75 180.5C120.917 177.5 126.333 173.583 131 168.75C135.667 163.75 139.583 158.083 142.75 151.75C145.917 145.417 148.25 138.833 149.75 132H153.75V185H149.75C148.917 183 147.917 181.667 146.75 181C145.583 180.167 143.833 179.75 141.5 179.75C139.5 179.75 136.917 180.25 133.75 181.25C130.583 182.083 126.917 183.083 122.75 184.25C118.75 185.25 114.333 186.167 109.5 187C104.667 188 99.5833 188.5 94.25 188.5C82.0833 188.5 70.3333 186.167 59 181.5C47.6667 176.667 37.6667 170.167 29 162C20.5 153.667 13.6667 143.917 8.5 132.75C3.33333 121.583 0.750001 109.5 0.750001 96.5C0.750001 82.3333 3.58333 69.5 9.25 58C15.0833 46.5 22.5 36.6667 31.5 28.5C40.5 20.3333 50.5 14.0833 61.5 9.74999C72.6667 5.24999 83.5833 2.99999 94.25 2.99999C99.5833 2.99999 104.5 3.49999 109 4.49998C113.667 5.49999 117.917 6.58333 121.75 7.74999C125.75 8.74999 129.333 9.75 132.5 10.75C135.667 11.75 138.333 12.25 140.5 12.25C142.833 12.25 144.583 12 145.75 11.5C146.917 10.8333 147.75 9.33333 148.25 7H152.25V58ZM219.67 96.5C219.67 113.833 220.67 128.25 222.67 139.75C224.67 151.083 227.753 160.167 231.92 167C236.253 173.667 241.753 178.333 248.42 181C255.253 183.667 263.337 185 272.67 185C285.003 185 294.67 182.75 301.67 178.25C308.67 173.583 313.92 167.25 317.42 159.25C320.92 151.083 323.087 141.5 323.92 130.5C324.92 119.333 325.42 107.25 325.42 94.25C325.42 82.5833 325.003 71.5 324.17 61C323.503 50.3333 321.42 41 317.92 33C314.42 24.8333 309.087 18.4167 301.92 13.75C294.92 8.91665 285.17 6.49999 272.67 6.49999C261.003 6.49999 251.67 8.74999 244.67 13.25C237.67 17.5833 232.337 23.75 228.67 31.75C225.003 39.75 222.587 49.25 221.42 60.25C220.253 71.25 219.67 83.3333 219.67 96.5ZM178.92 96.5C178.92 82.3333 181.753 69.5 187.42 58C193.253 46.5 200.67 36.6667 209.67 28.5C218.67 20.3333 228.753 14.0833 239.92 9.74999C251.087 5.24999 262.003 2.99999 272.67 2.99999C284.17 2.99999 295.503 5.16666 306.67 9.49999C318.003 13.8333 328.003 20 336.67 28C345.503 36 352.587 45.75 357.92 57.25C363.42 68.5833 366.17 81.4167 366.17 95.75C366.17 108.25 363.587 120.167 358.42 131.5C353.42 142.667 346.587 152.5 337.92 161C329.42 169.5 319.503 176.25 308.17 181.25C297.003 186.083 285.17 188.5 272.67 188.5C260.337 188.5 248.503 186.167 237.17 181.5C225.837 176.667 215.837 170.167 207.17 162C198.67 153.667 191.837 143.917 186.67 132.75C181.503 121.583 178.92 109.5 178.92 96.5ZM385.172 7H444.172L527.422 126H527.922V10.5H504.922V7H554.922V10.5H531.922V185H525.172L412.672 24.75H412.172V181.5H435.172V185H385.172V181.5H408.172V10.5H385.172V7ZM631.975 10.5H622.975C616.808 10.5 611.308 11.1667 606.475 12.5C601.641 13.6667 597.308 15.8333 593.475 19C589.641 22 586.225 26.25 583.225 31.75C580.225 37.25 577.475 44.25 574.975 52.75H571.725V7H728.475V52.75H725.225C722.725 44.25 719.975 37.25 716.975 31.75C713.975 26.25 710.558 22 706.725 19C702.891 15.8333 698.558 13.6667 693.725 12.5C688.891 11.1667 683.391 10.5 677.225 10.5H668.225V181.5H691.225V185H608.975V181.5H631.975V10.5ZM813.994 42.75L785.994 111H843.494L813.994 42.75ZM731.994 181.5H752.994L827.494 -2.38419e-06H834.244L912.994 181.5H934.494V185H850.494V181.5H873.744L844.744 114.5H784.744L756.994 181.5H779.244V185H731.994V181.5ZM1092.19 58H1088.94C1087.11 52.5 1084.86 46.75 1082.19 40.75C1079.69 34.5833 1076.36 29 1072.19 24C1068.19 18.8333 1063.11 14.6667 1056.94 11.5C1050.94 8.16666 1043.44 6.49999 1034.44 6.49999C1022.27 6.49999 1012.69 8.74999 1005.69 13.25C998.691 17.75 993.358 24 989.691 32C986.191 40 983.941 49.5833 982.941 60.75C981.941 71.75 981.441 83.8333 981.441 97C981.441 114.333 982.441 128.667 984.441 140C986.441 151.333 989.525 160.333 993.691 167C998.025 173.667 1003.52 178.333 1010.19 181C1017.02 183.667 1025.11 185 1034.44 185C1041.94 185 1048.69 183.5 1054.69 180.5C1060.86 177.5 1066.27 173.583 1070.94 168.75C1075.61 163.75 1079.52 158.083 1082.69 151.75C1085.86 145.417 1088.19 138.833 1089.69 132H1093.69V185H1089.69C1088.86 183 1087.86 181.667 1086.69 181C1085.52 180.167 1083.77 179.75 1081.44 179.75C1079.44 179.75 1076.86 180.25 1073.69 181.25C1070.52 182.083 1066.86 183.083 1062.69 184.25C1058.69 185.25 1054.27 186.167 1049.44 187C1044.61 188 1039.52 188.5 1034.19 188.5C1022.02 188.5 1010.27 186.167 998.941 181.5C987.608 176.667 977.608 170.167 968.941 162C960.441 153.667 953.608 143.917 948.441 132.75C943.275 121.583 940.691 109.5 940.691 96.5C940.691 82.3333 943.525 69.5 949.191 58C955.025 46.5 962.441 36.6667 971.441 28.5C980.441 20.3333 990.441 14.0833 1001.44 9.74999C1012.61 5.24999 1023.52 2.99999 1034.19 2.99999C1039.52 2.99999 1044.44 3.49999 1048.94 4.49998C1053.61 5.49999 1057.86 6.58333 1061.69 7.74999C1065.69 8.74999 1069.27 9.75 1072.44 10.75C1075.61 11.75 1078.27 12.25 1080.44 12.25C1082.77 12.25 1084.52 12 1085.69 11.5C1086.86 10.8333 1087.69 9.33333 1088.19 7H1092.19V58ZM1178.36 10.5H1169.36C1163.19 10.5 1157.69 11.1667 1152.86 12.5C1148.03 13.6667 1143.69 15.8333 1139.86 19C1136.03 22 1132.61 26.25 1129.61 31.75C1126.61 37.25 1123.86 44.25 1121.36 52.75H1118.11V7H1274.86V52.75H1271.61C1269.11 44.25 1266.36 37.25 1263.36 31.75C1260.36 26.25 1256.94 22 1253.11 19C1249.28 15.8333 1244.94 13.6667 1240.11 12.5C1235.28 11.1667 1229.78 10.5 1223.61 10.5H1214.61V181.5H1237.61V185H1155.36V181.5H1178.36V10.5Z" fill="black"/>
</svg>
