<svg width="651" height="74" viewBox="0 0 651 74" fill="none" xmlns="http://www.w3.org/2000/svg">
<path d="M58.2751 23.232H57.0271C56.3231 21.12 55.4591 18.912 54.4351 16.608C53.4751 14.24 52.1951 12.096 50.5951 10.176C49.0591 8.192 47.1071 6.592 44.7391 5.376C42.4351 4.096 39.5551 3.456 36.0991 3.456C31.4271 3.456 27.7471 4.32 25.0591 6.048C22.3711 7.776 20.3231 10.176 18.9151 13.248C17.5711 16.32 16.7071 20 16.3231 24.288C15.9391 28.512 15.7471 33.152 15.7471 38.208C15.7471 44.864 16.1311 50.368 16.8991 54.72C17.6671 59.072 18.8511 62.528 20.4511 65.088C22.1151 67.648 24.2271 69.44 26.7871 70.464C29.4111 71.488 32.5151 72 36.0991 72C38.9791 72 41.5711 71.424 43.8751 70.272C46.2431 69.12 48.3231 67.616 50.1151 65.76C51.9071 63.84 53.4111 61.664 54.6271 59.232C55.8431 56.8 56.7391 54.272 57.3151 51.648H58.8511V72H57.3151C56.9951 71.232 56.6111 70.72 56.1631 70.464C55.7151 70.144 55.0431 69.984 54.1471 69.984C53.3791 69.984 52.3871 70.176 51.1711 70.56C49.9551 70.88 48.5471 71.264 46.9471 71.712C45.4111 72.096 43.7151 72.448 41.8591 72.768C40.0031 73.152 38.0511 73.344 36.0031 73.344C31.3311 73.344 26.8191 72.448 22.4671 70.656C18.1151 68.8 14.2751 66.304 10.9471 63.168C7.68313 59.968 5.05913 56.224 3.07513 51.936C1.09113 47.648 0.0991253 43.008 0.0991253 38.016C0.0991253 32.576 1.18713 27.648 3.36313 23.232C5.60313 18.816 8.45113 15.04 11.9071 11.904C15.3631 8.768 19.2031 6.368 23.4271 4.704C27.7151 2.976 31.9071 2.112 36.0031 2.112C38.0511 2.112 39.9391 2.304 41.6671 2.68799C43.4591 3.072 45.0911 3.488 46.5631 3.936C48.0991 4.32 49.4751 4.704 50.6911 5.088C51.9071 5.472 52.9311 5.664 53.7631 5.664C54.6591 5.664 55.3311 5.568 55.7791 5.376C56.2271 5.12 56.5471 4.544 56.7391 3.648H58.2751V23.232ZM84.1644 38.016C84.1644 44.672 84.5484 50.208 85.3164 54.624C86.0844 58.976 87.2684 62.464 88.8684 65.088C90.5324 67.648 92.6444 69.44 95.2044 70.464C97.8284 71.488 100.932 72 104.516 72C109.252 72 112.964 71.136 115.652 69.408C118.34 67.616 120.356 65.184 121.7 62.112C123.044 58.976 123.876 55.296 124.196 51.072C124.58 46.784 124.772 42.144 124.772 37.152C124.772 32.672 124.612 28.416 124.292 24.384C124.036 20.288 123.236 16.704 121.892 13.632C120.548 10.496 118.5 8.032 115.748 6.23999C113.06 4.384 109.316 3.456 104.516 3.456C100.036 3.456 96.4524 4.32 93.7644 6.048C91.0764 7.712 89.0284 10.08 87.6204 13.152C86.2124 16.224 85.2844 19.872 84.8364 24.096C84.3884 28.32 84.1644 32.96 84.1644 38.016ZM68.5164 38.016C68.5164 32.576 69.6044 27.648 71.7804 23.232C74.0204 18.816 76.8684 15.04 80.3244 11.904C83.7804 8.768 87.6524 6.368 91.9404 4.704C96.2284 2.976 100.42 2.112 104.516 2.112C108.932 2.112 113.284 2.944 117.572 4.608C121.924 6.272 125.764 8.64 129.092 11.712C132.484 14.784 135.204 18.528 137.252 22.944C139.364 27.296 140.42 32.224 140.42 37.728C140.42 42.528 139.428 47.104 137.444 51.456C135.524 55.744 132.9 59.52 129.572 62.784C126.308 66.048 122.5 68.64 118.148 70.56C113.86 72.416 109.316 73.344 104.516 73.344C99.7804 73.344 95.2364 72.448 90.8844 70.656C86.5324 68.8 82.6924 66.304 79.3644 63.168C76.1004 59.968 73.4764 56.224 71.4924 51.936C69.5084 47.648 68.5164 43.008 68.5164 38.016ZM147.717 3.648H170.373L202.341 49.344H202.533V4.992H193.701V3.648H212.901V4.992H204.069V72H201.477L158.277 10.464H158.085V70.656H166.917V72H147.717V70.656H156.549V4.992H147.717V3.648ZM242.489 4.992H239.033C236.665 4.992 234.553 5.248 232.697 5.75999C230.841 6.208 229.177 7.04 227.705 8.256C226.233 9.408 224.921 11.04 223.769 13.152C222.617 15.264 221.561 17.952 220.601 21.216H219.353V3.648H279.545V21.216H278.297C277.337 17.952 276.281 15.264 275.129 13.152C273.977 11.04 272.665 9.408 271.193 8.256C269.721 7.04 268.057 6.208 266.201 5.75999C264.345 5.248 262.233 4.992 259.865 4.992H256.409V70.656H265.241V72H233.657V70.656H242.489V4.992ZM312.385 17.376L301.633 43.584H323.713L312.385 17.376ZM280.897 70.656H288.961L317.569 0.959999H320.161L350.401 70.656H358.657V72H326.401V70.656H335.329L324.193 44.928H301.153L290.497 70.656H299.041V72H280.897V70.656ZM419.213 23.232H417.965C417.261 21.12 416.397 18.912 415.373 16.608C414.413 14.24 413.133 12.096 411.533 10.176C409.997 8.192 408.045 6.592 405.677 5.376C403.373 4.096 400.493 3.456 397.037 3.456C392.365 3.456 388.685 4.32 385.997 6.048C383.309 7.776 381.261 10.176 379.853 13.248C378.509 16.32 377.645 20 377.261 24.288C376.877 28.512 376.685 33.152 376.685 38.208C376.685 44.864 377.069 50.368 377.837 54.72C378.605 59.072 379.789 62.528 381.389 65.088C383.053 67.648 385.165 69.44 387.725 70.464C390.349 71.488 393.453 72 397.037 72C399.917 72 402.509 71.424 404.813 70.272C407.181 69.12 409.261 67.616 411.053 65.76C412.845 63.84 414.349 61.664 415.565 59.232C416.781 56.8 417.677 54.272 418.253 51.648H419.789V72H418.253C417.933 71.232 417.549 70.72 417.101 70.464C416.653 70.144 415.981 69.984 415.085 69.984C414.317 69.984 413.325 70.176 412.109 70.56C410.893 70.88 409.485 71.264 407.885 71.712C406.349 72.096 404.653 72.448 402.797 72.768C400.941 73.152 398.989 73.344 396.941 73.344C392.269 73.344 387.757 72.448 383.405 70.656C379.053 68.8 375.213 66.304 371.885 63.168C368.621 59.968 365.997 56.224 364.013 51.936C362.029 47.648 361.037 43.008 361.037 38.016C361.037 32.576 362.125 27.648 364.301 23.232C366.541 18.816 369.389 15.04 372.845 11.904C376.301 8.768 380.141 6.368 384.365 4.704C388.653 2.976 392.845 2.112 396.941 2.112C398.989 2.112 400.877 2.304 402.605 2.68799C404.397 3.072 406.029 3.488 407.501 3.936C409.037 4.32 410.413 4.704 411.629 5.088C412.845 5.472 413.869 5.664 414.701 5.664C415.597 5.664 416.269 5.568 416.717 5.376C417.165 5.12 417.485 4.544 417.677 3.648H419.213V23.232ZM452.302 4.992H448.846C446.478 4.992 444.366 5.248 442.51 5.75999C440.654 6.208 438.99 7.04 437.518 8.256C436.046 9.408 434.734 11.04 433.582 13.152C432.43 15.264 431.374 17.952 430.414 21.216H429.166V3.648H489.358V21.216H488.11C487.15 17.952 486.094 15.264 484.942 13.152C483.79 11.04 482.478 9.408 481.006 8.256C479.534 7.04 477.87 6.208 476.014 5.75999C474.158 5.248 472.046 4.992 469.678 4.992H466.222V70.656H475.054V72H443.47V70.656H452.302V4.992ZM522.9 3.648H554.58V4.992H545.748V48.096C545.748 51.104 545.876 54.048 546.132 56.928C546.452 59.744 547.124 62.272 548.148 64.512C549.236 66.752 550.804 68.576 552.852 69.984C554.964 71.328 557.78 72 561.3 72C564.756 72 567.636 71.616 569.94 70.848C572.308 70.016 574.26 68.96 575.796 67.68C577.332 66.336 578.516 64.864 579.348 63.264C580.18 61.6 580.788 59.968 581.172 58.368C581.556 56.704 581.78 55.168 581.844 53.76C581.908 52.288 581.94 51.072 581.94 50.112V4.992H573.204V3.648H592.404V4.992H583.476V50.016C583.476 51.04 583.444 52.352 583.38 53.952C583.316 55.488 583.06 57.12 582.612 58.848C582.164 60.576 581.492 62.304 580.596 64.032C579.7 65.76 578.388 67.328 576.66 68.736C574.932 70.08 572.756 71.168 570.132 72C567.508 72.896 564.276 73.344 560.436 73.344C554.228 73.344 549.236 72.672 545.46 71.328C541.684 69.92 538.772 68.128 536.724 65.952C534.74 63.712 533.428 61.184 532.788 58.368C532.148 55.552 531.828 52.704 531.828 49.824V4.992H522.9V3.648ZM600.595 50.688H602.035C602.163 51.456 602.387 52.48 602.707 53.76C603.027 54.976 603.475 56.32 604.051 57.792C604.691 59.2 605.459 60.672 606.355 62.208C607.315 63.68 608.467 65.056 609.811 66.336C611.283 67.808 612.691 68.928 614.035 69.696C615.443 70.464 616.755 71.04 617.971 71.424C619.251 71.744 620.435 71.936 621.523 72C622.675 72 623.731 72 624.691 72C628.083 72 630.867 71.488 633.043 70.464C635.219 69.376 636.915 68.064 638.131 66.528C639.411 64.992 640.307 63.392 640.819 61.728C641.331 60 641.587 58.496 641.587 57.216C641.587 54.848 641.011 52.896 639.859 51.36C638.771 49.824 637.299 48.544 635.443 47.52C633.587 46.496 631.475 45.632 629.107 44.928C626.739 44.224 624.307 43.52 621.811 42.816C619.315 42.048 616.883 41.184 614.515 40.224C612.147 39.2 610.035 37.92 608.179 36.384C606.323 34.784 604.819 32.832 603.667 30.528C602.579 28.224 602.035 25.344 602.035 21.888C602.035 19.328 602.611 16.864 603.763 14.496C604.915 12.128 606.515 10.048 608.563 8.256C610.611 6.4 613.043 4.928 615.859 3.84C618.739 2.688 621.843 2.112 625.171 2.112C627.283 2.112 629.139 2.304 630.739 2.68799C632.339 3.072 633.747 3.488 634.963 3.936C636.179 4.32 637.235 4.704 638.131 5.088C639.091 5.472 639.955 5.664 640.723 5.664C641.619 5.664 642.195 5.536 642.451 5.27999C642.771 4.96 643.091 4.416 643.411 3.648H644.947V21.888H643.699C642.931 19.648 642.099 17.44 641.203 15.264C640.371 13.088 639.283 11.136 637.939 9.408C636.595 7.616 634.899 6.176 632.851 5.088C630.803 4 628.211 3.456 625.075 3.456C622.515 3.456 620.243 3.808 618.259 4.512C616.339 5.216 614.707 6.144 613.363 7.296C612.019 8.448 610.995 9.728 610.291 11.136C609.587 12.544 609.235 13.984 609.235 15.456C609.235 17.696 609.811 19.552 610.963 21.024C612.179 22.496 613.747 23.776 615.667 24.864C617.587 25.888 619.763 26.784 622.195 27.552C624.691 28.32 627.219 29.12 629.779 29.952C632.403 30.784 634.931 31.712 637.363 32.736C639.859 33.696 642.067 34.944 643.987 36.48C645.907 38.016 647.443 39.872 648.595 42.048C649.811 44.224 650.419 46.912 650.419 50.112C650.419 53.248 649.779 56.224 648.499 59.04C647.219 61.856 645.395 64.32 643.027 66.432C640.723 68.544 637.939 70.24 634.675 71.52C631.475 72.736 627.891 73.344 623.923 73.344C621.939 73.344 619.955 73.152 617.971 72.768C616.051 72.384 614.227 72 612.499 71.616C610.835 71.168 609.331 70.752 607.987 70.368C606.707 69.984 605.747 69.792 605.107 69.792C604.211 69.792 603.571 69.952 603.187 70.272C602.803 70.528 602.451 71.104 602.131 72H600.595V50.688Z" fill="black"/>
</svg>
