<svg width="466" height="74" viewBox="0 0 466 74" fill="none" xmlns="http://www.w3.org/2000/svg">
<path d="M9.384 4.992H0.552V3.648H57.288V20.064H56.04C55.144 17.76 54.152 15.68 53.064 13.824C52.04 11.968 50.824 10.4 49.416 9.12C48.008 7.776 46.344 6.752 44.424 6.048C42.568 5.344 40.36 4.992 37.8 4.992H23.304V35.904H28.68C31.048 35.904 33.032 35.584 34.632 34.944C36.296 34.24 37.672 33.28 38.76 32.064C39.848 30.784 40.744 29.28 41.448 27.552C42.152 25.76 42.728 23.776 43.176 21.6H44.424V51.456H43.176C42.728 49.6 42.184 47.808 41.544 46.08C40.968 44.352 40.168 42.848 39.144 41.568C38.12 40.224 36.84 39.168 35.304 38.4C33.832 37.632 31.976 37.248 29.736 37.248H23.304V70.656H32.232V72H0.552V70.656H9.384V4.992ZM91.8068 17.376L81.0548 43.584H103.135L91.8068 17.376ZM60.3187 70.656H68.3828L96.9908 0.959999H99.5828L129.823 70.656H138.079V72H105.823V70.656H114.751L103.615 44.928H80.5748L69.9188 70.656H78.4628V72H60.3187V70.656ZM141.611 50.688H143.051C143.179 51.456 143.403 52.48 143.723 53.76C144.043 54.976 144.491 56.32 145.067 57.792C145.707 59.2 146.475 60.672 147.371 62.208C148.331 63.68 149.483 65.056 150.827 66.336C152.299 67.808 153.707 68.928 155.051 69.696C156.459 70.464 157.771 71.04 158.987 71.424C160.267 71.744 161.451 71.936 162.539 72C163.691 72 164.747 72 165.707 72C169.099 72 171.883 71.488 174.059 70.464C176.235 69.376 177.931 68.064 179.147 66.528C180.427 64.992 181.323 63.392 181.835 61.728C182.347 60 182.603 58.496 182.603 57.216C182.603 54.848 182.027 52.896 180.875 51.36C179.787 49.824 178.315 48.544 176.459 47.52C174.603 46.496 172.491 45.632 170.123 44.928C167.755 44.224 165.323 43.52 162.827 42.816C160.331 42.048 157.899 41.184 155.531 40.224C153.163 39.2 151.051 37.92 149.195 36.384C147.339 34.784 145.835 32.832 144.683 30.528C143.595 28.224 143.051 25.344 143.051 21.888C143.051 19.328 143.627 16.864 144.779 14.496C145.931 12.128 147.531 10.048 149.579 8.256C151.627 6.4 154.059 4.928 156.875 3.84C159.755 2.688 162.859 2.112 166.187 2.112C168.299 2.112 170.155 2.304 171.755 2.68799C173.355 3.072 174.763 3.488 175.979 3.936C177.195 4.32 178.251 4.704 179.147 5.088C180.107 5.472 180.971 5.664 181.739 5.664C182.635 5.664 183.211 5.536 183.467 5.27999C183.787 4.96 184.107 4.416 184.427 3.648H185.963V21.888H184.715C183.947 19.648 183.115 17.44 182.219 15.264C181.387 13.088 180.299 11.136 178.955 9.408C177.611 7.616 175.915 6.176 173.867 5.088C171.819 4 169.227 3.456 166.091 3.456C163.531 3.456 161.259 3.808 159.275 4.512C157.355 5.216 155.723 6.144 154.379 7.296C153.035 8.448 152.011 9.728 151.307 11.136C150.603 12.544 150.251 13.984 150.251 15.456C150.251 17.696 150.827 19.552 151.979 21.024C153.195 22.496 154.763 23.776 156.683 24.864C158.603 25.888 160.779 26.784 163.211 27.552C165.707 28.32 168.235 29.12 170.795 29.952C173.419 30.784 175.947 31.712 178.379 32.736C180.875 33.696 183.083 34.944 185.003 36.48C186.923 38.016 188.459 39.872 189.611 42.048C190.827 44.224 191.435 46.912 191.435 50.112C191.435 53.248 190.795 56.224 189.515 59.04C188.235 61.856 186.411 64.32 184.042 66.432C181.739 68.544 178.955 70.24 175.691 71.52C172.491 72.736 168.907 73.344 164.939 73.344C162.955 73.344 160.971 73.152 158.987 72.768C157.067 72.384 155.243 72 153.515 71.616C151.851 71.168 150.347 70.752 149.003 70.368C147.723 69.984 146.763 69.792 146.123 69.792C145.227 69.792 144.587 69.952 144.203 70.272C143.819 70.528 143.467 71.104 143.147 72H141.611V50.688ZM201.173 3.648H232.757V4.992H223.925V36.48H251.669V4.992H242.837V3.648H274.421V4.992H265.589V70.656H274.421V72H242.837V70.656H251.669V37.824H223.925V70.656H232.757V72H201.173V70.656H210.005V4.992H201.173V3.648ZM281.525 3.648H313.109V4.992H304.277V70.656H313.109V72H281.525V70.656H290.357V4.992H281.525V3.648ZM336.555 38.016C336.555 44.672 336.939 50.208 337.707 54.624C338.475 58.976 339.659 62.464 341.259 65.088C342.923 67.648 345.035 69.44 347.595 70.464C350.219 71.488 353.323 72 356.907 72C361.643 72 365.355 71.136 368.043 69.408C370.731 67.616 372.747 65.184 374.091 62.112C375.435 58.976 376.267 55.296 376.587 51.072C376.971 46.784 377.163 42.144 377.163 37.152C377.163 32.672 377.003 28.416 376.683 24.384C376.427 20.288 375.627 16.704 374.283 13.632C372.939 10.496 370.891 8.032 368.139 6.23999C365.451 4.384 361.707 3.456 356.907 3.456C352.427 3.456 348.843 4.32 346.155 6.048C343.467 7.712 341.419 10.08 340.011 13.152C338.603 16.224 337.675 19.872 337.227 24.096C336.779 28.32 336.555 32.96 336.555 38.016ZM320.907 38.016C320.907 32.576 321.995 27.648 324.171 23.232C326.411 18.816 329.259 15.04 332.715 11.904C336.171 8.768 340.043 6.368 344.331 4.704C348.619 2.976 352.811 2.112 356.907 2.112C361.323 2.112 365.675 2.944 369.963 4.608C374.315 6.272 378.155 8.64 381.483 11.712C384.875 14.784 387.595 18.528 389.643 22.944C391.755 27.296 392.811 32.224 392.811 37.728C392.811 42.528 391.819 47.104 389.835 51.456C387.915 55.744 385.291 59.52 381.963 62.784C378.699 66.048 374.891 68.64 370.539 70.56C366.251 72.416 361.707 73.344 356.907 73.344C352.171 73.344 347.627 72.448 343.275 70.656C338.923 68.8 335.083 66.304 331.755 63.168C328.491 59.968 325.867 56.224 323.883 51.936C321.899 47.648 320.907 43.008 320.907 38.016ZM400.108 3.648H422.764L454.732 49.344H454.924V4.992H446.092V3.648H465.292V4.992H456.46V72H453.868L410.668 10.464H410.476V70.656H419.308V72H400.108V70.656H408.94V4.992H400.108V3.648Z" fill="black"/>
</svg>
